<svg viewBox="0 0 40 40" version="1.1" xmlns="http://www.w3.org/2000/svg" width='16' height='16'>
<!-- <path class="fill" d="m 35.140937,15.170116 h -12.92 l 0.28,-2.92 0.42,-5.1400001 a 1.28,1.28 0 0 0 -1,-1.53 1.12,1.12 0 0 0 -1.25,0.42 l -6.36,8.1700001 -0.83,1.11 h -8.34 a 2,2 0 0 0 -0.83,0.28 2.29,2.29 0 0 0 -1.25,2.08 v 14.88 a 2,2 0 0 0 0.42,1.25 2,2 0 0 0 2.08,1.11 h 23.33 a 2.36,2.36 0 0 0 1.39,-0.41 3.6,3.6 0 0 0 2.08,-2.78 l 4.44,-14.59 2.5,0.56 -2.5,-0.56 a 2.4,2.4 0 0 0 -0.14,-1.39 2.91,2.91 0 0 0 -1.52,-0.54 l 0.28,-2.5 z"></path> -->
<path class="border" d="M 21.402578,2.9572256 A 3.91,3.91 0 0 0 18.609609,4.1701163 L 11.810781,12.66035 H 5.5607807 a 8.43,8.43 0 0 0 -2.5,0.689454 4.91,4.91 0 0 0 -2.49999999,4.310546 v 14.859375 a 5.66,5.66 0 0 0 0.68945299,2.5 4.52,4.52 0 0 0 4.310547,2.361329 H 28.859609 a 6.37,6.37 0 0 0 6,-4.861329 l 4.451172,-14.71875 A 4.38,4.38 0 0 0 38.750234,14.330272 4.14,4.14 0 0 0 35.420156,12.66035 H 25.000234 l 0.25,-5.5605462 a 3.91,3.91 0 0 0 -1.25,-3.1894531 3.91,3.91 0 0 0 -2.597656,-0.9531251 z m 0.1875,2.5703126 a 1.12,1.12 0 0 1 0.330078,0.052734 1.28,1.28 0 0 1 1,1.5292969 l -0.419922,5.1406259 -0.279297,2.919921 h 12.919922 a 2.91,2.91 0 0 1 1.519531,0.539062 2.4,2.4 0 0 1 0.140625,1.390626 l -4.441406,14.589843 a 3.6,3.6 0 0 1 -2.080078,2.78125 2.36,2.36 0 0 1 -1.388672,0.410157 H 5.5607807 a 2,2 0 0 1 -2.080078,-1.111329 2,2 0 0 1 -0.419922,-1.25 V 17.640819 a 2.29,2.29 0 0 1 1.25,-2.080078 2,2 0 0 1 0.830078,-0.28125 h 5.8398443 v 19.580078 h 2.5 V 15.279491 l 0.830078,-1.109375 6.359375,-8.1699216 a 1.12,1.12 0 0 1 0.919922,-0.4726562 z"></path></svg>