<svg t="1642845459925" class="icon" viewBox="0 0 1024 1024" version="1.1" xmlns="http://www.w3.org/2000/svg" p-id="16973" width="32" height="32"><path d="M516.05504 555.33568c-23.4496 0-46.91968-5.2224-68.77184-15.6672L118.96832 382.7712c-24.04352-11.48928-38.97344-35.18464-38.97344-61.82912s14.92992-50.33984 38.99392-61.82912L447.2832 102.1952c43.70432-20.8896 93.83936-20.8896 137.54368 0l328.31488 156.89728c24.04352 11.48928 38.97344 35.18464 38.97344 61.82912s-14.92992 50.33984-38.99392 61.82912L584.8064 539.648c-21.83168 10.46528-45.30176 15.68768-68.75136 15.68768zM179.56864 320.9216l303.04256 144.83456c21.25824 10.15808 45.62944 10.15808 66.88768 0l303.04256-144.83456-303.04256-144.81408c-21.25824-10.15808-45.62944-10.15808-66.88768 0L179.56864 320.9216z" p-id="16974"></path><path d="M516.05504 751.26784c-20.04992 0-40.07936-4.46464-58.73664-13.37344L103.85408 568.95488c-20.41856-9.74848-29.04064-34.2016-19.29216-54.62016 9.74848-20.41856 34.2016-29.04064 54.62016-19.29216l353.44384 168.91904c14.88896 7.10656 31.9488 7.10656 46.83776 0L892.928 495.04256c20.41856-9.74848 44.87168-1.10592 54.62016 19.29216 9.74848 20.41856 1.10592 44.87168-19.29216 54.62016l-353.44384 168.91904c-18.67776 8.92928-38.72768 13.39392-58.75712 13.39392z" p-id="16975"></path><path d="M516.05504 944.68096c-20.04992 0-40.07936-4.46464-58.73664-13.37344L103.85408 762.38848c-20.41856-9.74848-29.04064-34.2016-19.29216-54.62016 9.74848-20.41856 34.2016-29.04064 54.62016-19.29216l353.44384 168.91904c14.88896 7.10656 31.9488 7.10656 46.83776 0L892.928 688.47616c20.41856-9.74848 44.87168-1.10592 54.62016 19.29216 9.74848 20.41856 1.10592 44.87168-19.29216 54.62016l-353.44384 168.91904c-18.67776 8.9088-38.72768 13.37344-58.75712 13.37344z" p-id="16976"></path></svg>