<svg t="1642845006623" class="icon" viewBox="0 0 1024 1024" version="1.1" xmlns="http://www.w3.org/2000/svg" p-id="10233" width="32" height="32"><path d="M217.088 327.168v591.872h589.824v-591.872l-252.928-206.848c-12.971008-10.24-26.964992-15.36-41.984-15.36-15.019008 0-29.012992 5.12-41.984 15.36l-252.928 206.848z m377.856-258.048l265.216 217.088c8.192 6.827008 12.288 15.36 12.288 25.6v640c0 9.556992-3.072 17.408-9.216 23.552s-13.995008 9.216-23.552 9.216H184.32c-9.556992 0-17.408-3.072-23.552-9.216s-9.216-13.995008-9.216-23.552v-640c0-10.24 4.096-18.772992 12.288-25.6l265.216-217.088c25.259008-19.796992 52.907008-29.696 82.944-29.696s57.684992 9.899008 82.944 29.696z m-82.944 391.168c18.432-0.683008 33.792-7.168 46.08-19.456s18.432-27.648 18.432-46.08-6.144-33.792-18.432-46.08-27.648-18.432-46.08-18.432-33.792 6.144-46.08 18.432-18.432 27.648-18.432 46.08 6.144 33.792 18.432 46.08 27.648 18.772992 46.08 19.456z m0 65.536c-36.864-0.683008-67.755008-13.483008-92.672-38.4s-37.716992-55.808-38.4-92.672c0.683008-36.864 13.483008-67.755008 38.4-92.672s55.808-37.716992 92.672-38.4c36.864 0.683008 67.755008 13.483008 92.672 38.4s37.716992 55.808 38.4 92.672c-0.683008 36.864-13.483008 67.755008-38.4 92.672S548.864 525.140992 512 525.824z" p-id="10234"></path></svg>